<svg xmlns="http://www.w3.org/2000/svg" version="1.1" xmlns:xlink="http://www.w3.org/1999/xlink" xmlns:svgjs="http://svgjs.dev/svgjs" width="1500" height="647" viewBox="0 0 1500 647"><g transform="matrix(1,0,0,1,-0.9090909090909918,-0.8809379727685496)"><svg viewBox="0 0 396 171" data-background-color="#ff9b70" preserveAspectRatio="xMidYMid meet" height="647" width="1500" xmlns="http://www.w3.org/2000/svg" xmlns:xlink="http://www.w3.org/1999/xlink"><g id="tight-bounds" transform="matrix(1,0,0,1,0.2400000000000091,0.2328290468986438)"><svg viewBox="0 0 395.52 170.5343419062027" height="170.5343419062027" width="395.52"><g><svg viewBox="0 0 395.52 170.5343419062027" height="170.5343419062027" width="395.52"><g><svg viewBox="0 0 395.52 170.5343419062027" height="170.5343419062027" width="395.52"><g id="textblocktransform"><svg viewBox="0 0 395.52 170.5343419062027" height="170.5343419062027" width="395.52" id="textblock"><g><svg viewBox="0 0 395.52 170.5343419062027" height="170.5343419062027" width="395.52"><g transform="matrix(1,0,0,1,0,0)"><svg width="395.52" viewBox="1.55 -32.5 99.14 42.75" height="170.5343419062027" data-palette-color="#000000"><path d="M27.05-13.9L27.05-13.9Q24.05-13.9 22-15.28 19.95-16.65 19.95-18.75L19.95-18.75Q19.95-21.4 23.4-24.05L23.4-24.05Q24-24.5 24.3-24.5 24.6-24.5 24.6-24.3L24.6-24.3Q24.6-23.8 23.8-23.5L23.8-23.5Q21-21.25 21-18.95L21-18.95Q21-17.3 22.5-16.18 24-15.05 26.25-15.05L26.25-15.05Q31.15-15.05 35.5-19.75L35.5-19.75Q37.75-22.2 37.75-25.4 37.75-28.6 35.35-30.15L35.35-30.15Q33.35-31.55 29.95-31.55L29.95-31.55Q25.05-31.55 20.1-29.1L20.1-29.1Q14-26.15 9.08-19.93 4.15-13.7 4.15-7.95L4.15-7.95Q4.15-3.4 7.25-0.93 10.35 1.55 14.95 1.55L14.95 1.55Q20.2 1.55 25.25-1L25.25-1Q29.1-3 31.9-6.1L31.9-6.1Q32.7-7 33.15-7L33.15-7Q33.45-7 33.45-6.48 33.45-5.95 32.9-5.4L32.9-5.4Q30.25-2.6 25.25 0L25.25 0Q19.1 3.25 12.88 3.25 6.65 3.25 3.6-0.85L3.6-0.85Q1.55-3.55 1.55-7.3L1.55-7.3Q1.55-8.95 1.95-10.85L1.95-10.85Q3.3-17.25 9.05-23.3L9.05-23.3Q13.2-27.65 18.9-30.08 24.6-32.5 29.7-32.5L29.7-32.5Q32.4-32.5 34.4-31.85L34.4-31.85Q39.85-30.15 39.85-25L39.85-25Q39.85-21.85 38-19.55L38-19.55Q33.4-13.9 27.05-13.9ZM52.9-14.95L52.9-14.95 53.6-15.1Q54.15-15.1 54.65-14.65 55.15-14.2 55.15-13.95 55.15-13.7 52.05-9.13 48.95-4.55 48.95-2.75L48.95-2.75Q48.95-2.6 49-2.45L49-2.45Q49.25-1.3 50.1-1.3L50.1-1.3Q52.7-1.3 59.6-9.9L59.6-9.9Q59.75-10.1 59.95-10.1 60.15-10.1 60.15-9.73 60.15-9.35 59.7-8.75L59.7-8.75Q53.3-0.2 49.95-0.2L49.95-0.2Q49.5-0.2 49.1-0.35L49.1-0.35Q46.9-1.2 46.9-3.65L46.9-3.65Q46.9-4.5 47.1-5.35L47.1-5.35 44-2.35Q41.05 0.25 39.72 0.25 38.4 0.25 37.2-0.6L37.2-0.6Q35.85-1.6 35.85-3.25L35.85-3.25Q35.85-6.9 40.95-11.98 46.05-17.05 50.3-17.05L50.3-17.05Q51.95-17.05 52.5-15.9L52.5-15.9Q52.65-15.5 52.75-15.23 52.85-14.95 52.9-14.95ZM37.95-2.65L37.95-2.65Q37.95-0.85 39.2-0.85L39.2-0.85Q42.1-0.85 47.1-7.2L47.1-7.2 52.4-14.5Q52-15.2 51.1-15.2L51.1-15.2Q48.05-15.2 43-10.48 37.95-5.75 37.95-2.65ZM77.3-24.45L77.3-24.45Q77.3-22.9 76.4-22.9L76.4-22.9Q76.15-22.9 75.9-23.3L75.9-23.3Q75.45-24.1 74.4-24.1L74.4-24.1Q72.1-24.1 70.1-20.8L70.1-20.8Q69.7-20.15 67.6-16.1L67.6-16.1 68.2-16.1Q73.65-16.1 75.45-16.25L75.45-16.25Q75.65-16.2 75.65-16.05L75.65-16.05Q75.65-15.65 72.1-14.95L72.1-14.95Q68.75-14.4 66.6-14L66.6-14Q65.05-10.8 62.85-6.4L62.85-6.4Q58.35 2 56.9 4.05L56.9 4.05Q52.55 10.25 48.4 10.25L48.4 10.25Q46.95 10.25 45.87 9.03 44.8 7.8 44.75 6.3L44.75 6.3Q44.9 5.7 45.2 5.7L45.2 5.7Q45.35 5.7 45.4 6.05L45.4 6.05Q45.7 7.35 46.4 8.05 47.1 8.75 47.85 8.75L47.85 8.75Q52.1 8.75 55.6 3.5L55.6 3.5Q57.6 0.5 61.05-7.3L61.05-7.3 63.75-13.8Q58.75-13.85 58.75-15L58.75-15Q58.75-15.5 59.22-15.85 59.7-16.2 60.05-16.2L60.05-16.2 64.75-16.1Q69.65-27 73.75-27L73.75-27Q75.3-27 76.9-25.5L76.9-25.5Q77.3-25.1 77.3-24.45ZM79.84-20.4Q80.59-20.4 81.27-19.93 81.94-19.45 81.94-18.8 81.94-18.15 81.32-17.68 80.69-17.2 79.94-17.2 79.19-17.2 78.57-17.75 77.94-18.3 77.94-19L77.94-19Q77.94-20.4 79.84-20.4L79.84-20.4ZM70.79 0.55L70.79 0.55Q68.24 0.55 68.24-2.75L68.24-2.75Q68.24-5.45 71.19-10.23 74.14-15 75.94-15.05L75.94-15.05Q76.44-15.05 77.07-14.65 77.69-14.25 77.69-13.85L77.69-13.85Q77.44-13.5 77.09-13.08 76.74-12.65 76.34-12.15 75.94-11.65 75.24-10.73 74.54-9.8 73.89-8.95L73.89-8.95Q70.14-4.1 70.14-2.27 70.14-0.45 71.39-0.45L71.39-0.45Q72.44-0.45 74.24-1.6L74.24-1.6Q78.44-4.2 80.89-7.3L80.89-7.3Q81.79-8.45 82.12-8.45 82.44-8.45 82.44-8.05 82.44-7.65 81.29-6.45 80.14-5.25 79.47-4.55 78.79-3.85 78.54-3.63 78.29-3.4 77.62-2.78 76.94-2.15 76.59-1.9 76.24-1.65 75.59-1.15 74.94-0.65 74.44-0.43 73.94-0.2 73.29 0.1L73.29 0.1Q72.24 0.55 70.79 0.55ZM93.34-16.1L93.34-16.1 100.54-16.2Q100.69-16.1 100.69-16.05L100.69-16.05Q100.69-15.6 94.47-14.8 88.24-14 87.74-13.85L87.74-13.85Q86.79-13 84.24-8.78 81.69-4.55 81.69-2.6L81.69-2.6Q81.69-0.75 84.24-0.75L84.24-0.75Q85.44-0.75 87.39-1.5 89.34-2.25 90.39-2.9L90.39-2.9Q93.19-4.65 96.39-8.05L96.39-8.05Q97.09-8.75 97.34-8.75L97.34-8.75Q97.49-8.75 97.49-8.45 97.49-8.15 96.74-7.25L96.74-7.25Q94.14-4.05 90.89-2.1L90.89-2.1Q86.99 0.3 83.44 0.3L83.44 0.3Q81.89 0.3 80.92-0.38 79.94-1.05 79.94-3.1 79.94-5.15 81.74-8.72 83.54-12.3 84.49-14.05L84.49-14.05Q83.79-13.9 83.29-13.9L83.29-13.9Q81.84-13.9 81.84-15.05L81.84-15.05Q81.84-15.9 83.04-16.25L83.04-16.25Q83.19-16.25 83.49-16.3L83.49-16.3 86.39-16.3Q87.29-17.45 88.44-18.95L88.44-18.95Q89.84-20.75 90.34-20.75 90.84-20.75 91.59-20.35 92.34-19.95 92.34-19.4 92.34-18.85 89.94-16.15L89.94-16.15Q91.24-16.1 93.34-16.1Z" opacity="1" transform="matrix(1,0,0,1,0,0)" fill="#000000" class="wordmark-text-0" data-fill-palette-color="primary" id="text-0"></path></svg></g></svg></g></svg></g></svg></g></svg></g><defs></defs></svg><rect width="395.52" height="170.5343419062027" fill="none" stroke="none" visibility="hidden"></rect></g></svg></g></svg>